<?xml version="1.0" encoding="UTF-8" standalone="no"?>
<svg
   xmlns:dc="http://purl.org/dc/elements/1.1/"
   xmlns:cc="http://creativecommons.org/ns#"
   xmlns:rdf="http://www.w3.org/1999/02/22-rdf-syntax-ns#"
   xmlns:svg="http://www.w3.org/2000/svg"
   xmlns="http://www.w3.org/2000/svg"
   xmlns:sodipodi="http://sodipodi.sourceforge.net/DTD/sodipodi-0.dtd"
   xmlns:inkscape="http://www.inkscape.org/namespaces/inkscape"
   viewBox="0 0 305.33334 138.66667"
   height="138.66667"
   width="305.33334"
   xml:space="preserve"
   id="svg3732"
   version="1.1"
   sodipodi:docname="logo.svg"
   inkscape:export-filename="/var/www/html/tcc/src/assets/static/images/logo.png"
   inkscape:export-xdpi="96"
   inkscape:export-ydpi="96"
   inkscape:version="0.92.3 (2405546, 2018-03-11)"><sodipodi:namedview
     pagecolor="#ffffff"
     bordercolor="#666666"
     borderopacity="1"
     objecttolerance="10"
     gridtolerance="10"
     guidetolerance="10"
     inkscape:pageopacity="0"
     inkscape:pageshadow="2"
     inkscape:window-width="1366"
     inkscape:window-height="699"
     id="namedview63"
     showgrid="false"
     inkscape:zoom="1.1364628"
     inkscape:cx="205.0221"
     inkscape:cy="139.72719"
     inkscape:window-x="0"
     inkscape:window-y="0"
     inkscape:window-maximized="1"
     inkscape:current-layer="svg3732" /><metadata
     id="metadata3738"><rdf:RDF><cc:Work
         rdf:about=""><dc:format>image/svg+xml</dc:format><dc:type
           rdf:resource="http://purl.org/dc/dcmitype/StillImage" /><dc:title /></cc:Work></rdf:RDF></metadata><defs
     id="defs3736" /><g
     transform="matrix(5.1987391,0,0,-5.1987391,-561.83989,337.48643)"
     id="g3740"><g
       transform="matrix(0.05970399,0,0,0.06434177,14.17909,30.063487)"
       id="g3742"><g
         transform="matrix(-0.30371286,-0.22042244,-0.21615331,0.3005814,1106.2599,136.84564)"
         id="g3746"><path
           id="path3748"
           style="fill:none;stroke:#72849d;stroke-width:24.05450058;stroke-linecap:butt;stroke-linejoin:miter;stroke-miterlimit:22.92560005;stroke-dasharray:none;stroke-opacity:1"
           d="m -2548.57,-862.049 c -202.93,15.049 -378.76,28.42 -442.6,-55.054 -63.84,-83.467 -42.81,-229.757 161.71,-258.737"
           inkscape:connector-curvature="0" /></g><g
         transform="matrix(-0.45897475,-0.06517668,-0.0586702,0.45804838,1106.2599,136.84564)"
         id="g3750"><path
           id="path3752"
           style="fill:none;stroke:#72849d;stroke-width:19.37929916;stroke-linecap:butt;stroke-linejoin:miter;stroke-miterlimit:22.92560005;stroke-dasharray:none;stroke-opacity:1"
           d="m -2195.68,294.535 c -62.18,39.259 -131.69,80.302 -199.03,106.093 -58.23,21.429 -81.83,-21.545 -56.09,-53.256 l 45.34,-40.239"
           inkscape:connector-curvature="0" /></g><g
         transform="matrix(-0.45897475,-0.06517668,-0.0586702,0.45804838,1106.2599,136.84564)"
         id="g3754"><path
           id="path3756"
           style="fill:none;stroke:#72849d;stroke-width:19.37929916;stroke-linecap:butt;stroke-linejoin:miter;stroke-miterlimit:22.92560005;stroke-dasharray:none;stroke-opacity:1"
           d="m -2342.22,379.798 c -110.8,-116.223 -178.22,-239.006 -224.25,-353.0902 -43.05,-124.979 52.52,-329.2728 291.07,-245.8068"
           inkscape:connector-curvature="0" /></g><g
         transform="matrix(-0.45897475,-0.06517668,-0.0586702,0.45804838,1106.2599,136.84564)"
         id="g3758"><path
           id="path3760"
           style="fill:none;stroke:#72849d;stroke-width:19.37929916;stroke-linecap:butt;stroke-linejoin:miter;stroke-miterlimit:22.92560005;stroke-dasharray:none;stroke-opacity:1"
           d="m -2271.32,338.948 c -97.33,-111.474 -168.32,-239.0124 -213.15,-351.5065 -20.25,-66.5521 40.52,-155.5345 145.92,-130.6305"
           inkscape:connector-curvature="0" /></g><g
         transform="matrix(-0.45897475,-0.06517668,-0.0586702,0.45804838,1106.2599,136.84564)"
         id="g3762"><path
           id="path3764"
           style="fill:none;stroke:#72849d;stroke-width:19.37929916;stroke-linecap:butt;stroke-linejoin:miter;stroke-miterlimit:22.92560005;stroke-dasharray:none;stroke-opacity:1"
           d="m -2327.91,110.176 c -20.42,-25.5457 -28.16,-60.6048 -38.88,-94.6715 -33.26,-323.0865 377.97,-369.2705 492.58,-180.3485"
           inkscape:connector-curvature="0" /></g><g
         transform="matrix(-0.35849697,-0.16564405,-0.16058542,0.35614356,1106.2599,136.84564)"
         id="g3766"><path
           id="path3768"
           style="fill:none;stroke:#72849d;stroke-width:22.82719994;stroke-linecap:butt;stroke-linejoin:miter;stroke-miterlimit:22.92560005;stroke-dasharray:none;stroke-opacity:1"
           d="m -2720.55,-521.105 c 82.67,-52.54 165.85,-86.64 239.13,-158.103 51.35,-63.465 91.92,-142.861 53.4,-251.761"
           inkscape:connector-curvature="0" /></g><g
         transform="matrix(-0.35849697,-0.16564405,-0.16058542,0.35614356,1106.2599,136.84564)"
         id="g3770"><path
           id="path3772"
           style="fill:none;stroke:#72849d;stroke-width:22.82719994;stroke-linecap:butt;stroke-linejoin:miter;stroke-miterlimit:22.92560005;stroke-dasharray:none;stroke-opacity:1"
           d="m -2758.65,-615.259 c 64.85,-29.886 130.78,-73.827 187.15,-116.766 37.54,-29.85 67.36,-97.872 40.99,-142.892"
           inkscape:connector-curvature="0" /></g><g
         transform="matrix(-0.17018277,0.34654726,0.34903494,0.17510504,1106.2599,136.84564)"
         id="g3774"><path
           id="path3776"
           style="fill:none;stroke:#72849d;stroke-width:23.11190033;stroke-linecap:butt;stroke-linejoin:miter;stroke-miterlimit:22.92560005;stroke-dasharray:none;stroke-opacity:1"
           d="m -821.016,2583.37 c -262.764,1.88 -255.354,-338.49 -72.91,-410.87"
           inkscape:connector-curvature="0" /></g><g
         transform="matrix(-0.30371286,-0.22042244,-0.21615331,0.3005814,1106.2599,136.84564)"
         id="g3778"><path
           id="path3780"
           style="fill:none;stroke:#72849d;stroke-width:24.05450058;stroke-linecap:butt;stroke-linejoin:miter;stroke-miterlimit:22.92560005;stroke-dasharray:none;stroke-opacity:1"
           d="m -2285.34,-1026.94 c 19.34,-238.08 240.69,-351.75 448.95,-194.71 124.51,97.77 110.86,316.316 -101.13,426.055 -78.52,39.448 -152.46,52.067 -230.42,78.989"
           inkscape:connector-curvature="0" /></g><g
         transform="matrix(-0.35849697,-0.16564405,-0.16058542,0.35614356,1106.2599,136.84564)"
         id="g3782"><path
           id="path3784"
           style="fill:none;stroke:#72849d;stroke-width:22.82719994;stroke-linecap:butt;stroke-linejoin:miter;stroke-miterlimit:22.92560005;stroke-dasharray:none;stroke-opacity:1"
           d="m -2477.94,-451.938 c 85.28,-38.59 169.16,-74.182 245.36,-120.629 51,-23.597 88.51,-80.759 86.15,-138.273"
           inkscape:connector-curvature="0" /></g><g
         transform="matrix(-0.38995674,-0.1341874,-0.12867547,0.38805039,1106.2599,136.84564)"
         id="g3786"><path
           id="path3788"
           style="fill:none;stroke:#72849d;stroke-width:21.81200027;stroke-linecap:butt;stroke-linejoin:miter;stroke-miterlimit:22.92560005;stroke-dasharray:none;stroke-opacity:1"
           d="m -2308.69,-23.445 c -72.72,-103.641 -124.33,-220.027 -174.56,-325.912"
           inkscape:connector-curvature="0" /></g><g
         transform="matrix(-0.35849697,-0.16564405,-0.16058542,0.35614356,1106.2599,136.84564)"
         id="g3790"><path
           id="path3792"
           style="fill:none;stroke:#72849d;stroke-width:22.82719994;stroke-linecap:butt;stroke-linejoin:miter;stroke-miterlimit:22.92560005;stroke-dasharray:none;stroke-opacity:1"
           d="m -2447.22,-357.58 c 99.13,-44.884 196.37,-77.904 285.41,-140.216 74.91,-39.772 120.45,-125.957 128.59,-229.536"
           inkscape:connector-curvature="0" /></g><g
         transform="matrix(-0.45897475,-0.06517668,-0.0586702,0.45804838,1106.2599,136.84564)"
         id="g3794"><path
           id="path3796"
           style="fill:none;stroke:#72849d;stroke-width:19.37929916;stroke-linecap:butt;stroke-linejoin:miter;stroke-miterlimit:22.92560005;stroke-dasharray:none;stroke-opacity:1"
           d="m -1946.98,68.1653 c -21.43,-58.23012 5.85,-160.4674 141.95,-152.4193 57.86,11.0639 128.42,91.84676 50.63,201.042 -31.87,44.988 -65.53,82.65 -107.9,121.896"
           inkscape:connector-curvature="0" /></g><g
         transform="matrix(-0.35849697,-0.16564405,-0.16058542,0.35614356,1106.2599,136.84564)"
         id="g3798"><path
           id="path3800"
           style="fill:none;stroke:#72849d;stroke-width:22.82719994;stroke-linecap:butt;stroke-linejoin:miter;stroke-miterlimit:22.92560005;stroke-dasharray:none;stroke-opacity:1"
           d="m -2202.55,-476.716 c 0.24,112.937 96.51,254.161 85.38,356.35 -42.89,205.7005 -252.98,164.4037 -327.19,-32.073"
           inkscape:connector-curvature="0" /></g><g
         transform="matrix(-0.35849697,-0.16564405,-0.16058542,0.35614356,1106.2599,136.84564)"
         id="g3802"><path
           id="path3804"
           style="fill:none;stroke:#72849d;stroke-width:22.82719994;stroke-linecap:butt;stroke-linejoin:miter;stroke-miterlimit:22.92560005;stroke-dasharray:none;stroke-opacity:1"
           d="m -2303.66,-423.653 c 22.65,96.061 59.05,182.139 78.01,278.308 -10.27,80.7508 -74.18,65.5851 -129.64,-42.1"
           inkscape:connector-curvature="0" /></g><g
         transform="matrix(-0.30371286,-0.22042244,-0.21615331,0.3005814,1106.2599,136.84564)"
         id="g3806"><path
           id="path3808"
           style="fill:none;stroke:#72849d;stroke-width:24.05450058;stroke-linecap:butt;stroke-linejoin:miter;stroke-miterlimit:22.92560005;stroke-dasharray:none;stroke-opacity:1"
           d="m -2280.86,-803.725 c -93.93,28.141 -198.16,37.957 -296.59,36.929 -58.51,-8.41 -72.16,-48.61 -84.13,-94.037"
           inkscape:connector-curvature="0" /></g><g
         transform="matrix(-0.30371286,-0.22042244,-0.21615331,0.3005814,1106.2599,136.84564)"
         id="g3810"><path
           id="path3812"
           style="fill:none;stroke:#72849d;stroke-width:24.05450058;stroke-linecap:butt;stroke-linejoin:miter;stroke-miterlimit:22.92560005;stroke-dasharray:none;stroke-opacity:1"
           d="m -2264.4,-696.789 c -113.85,20.004 -236.3,48.797 -355.02,37.207 -109.55,-32.905 -136.56,-119.549 -146.1,-197.7"
           inkscape:connector-curvature="0" /></g><g
         transform="matrix(-0.25448179,-0.2696483,-0.26608801,0.25065139,1106.2599,136.84564)"
         id="g3814"><path
           id="path3816"
           style="fill:none;stroke:#72849d;stroke-width:47.50970078;stroke-linecap:butt;stroke-linejoin:miter;stroke-miterlimit:22.92560005;stroke-dasharray:none;stroke-opacity:1"
           d="m -2377.04,-1393.71 c -137.4,-23.71 -232.86,-35.91 -269.73,-49.72 -209.83,-52.5 -111.99,-241.99 55.09,-212.23"
           inkscape:connector-curvature="0" /></g><g
         transform="matrix(-0.38995674,-0.1341874,-0.12867547,0.38805039,1106.2599,136.84564)"
         id="g3818"><path
           id="path3820"
           style="fill:none;stroke:#72849d;stroke-width:21.81200027;stroke-linecap:butt;stroke-linejoin:miter;stroke-miterlimit:22.92560005;stroke-dasharray:none;stroke-opacity:1"
           d="M -2396.92,9.51575 C -2459.19,-90.5181 -2517.05,-184.007 -2560.34,-285.826"
           inkscape:connector-curvature="0" /></g><g
         transform="matrix(-0.25448179,-0.2696483,-0.26608801,0.25065139,1106.2599,136.84564)"
         id="g3822"><path
           id="path3824"
           style="fill:none;stroke:#72849d;stroke-width:47.50970078;stroke-linecap:butt;stroke-linejoin:miter;stroke-miterlimit:22.92560005;stroke-dasharray:none;stroke-opacity:1"
           d="m -2534.92,-1470.48 c -10.96,-177.28 14.1,-351.99 51.25,-482.67 28.23,-124.78 212.9,-270 369.38,-52.54"
           inkscape:connector-curvature="0" /></g><g
         transform="matrix(-0.17847902,0.33825205,0.34085578,0.18328316,1106.2599,136.84564)"
         id="g3826"><path
           id="path3828"
           style="fill:none;stroke:#72849d;stroke-width:45.47069931;stroke-linecap:butt;stroke-linejoin:miter;stroke-miterlimit:22.92560005;stroke-dasharray:none;stroke-opacity:1"
           d="m -743.693,2754.99 c -58.305,-83.33 -130.048,-354.04 -339.597,-285.56"
           inkscape:connector-curvature="0" /></g><g
         transform="matrix(-0.25448179,-0.2696483,-0.26608801,0.25065139,1106.2599,136.84564)"
         id="g3830"><path
           id="path3832"
           style="fill:none;stroke:#72849d;stroke-width:47.50970078;stroke-linecap:butt;stroke-linejoin:miter;stroke-miterlimit:22.92560005;stroke-dasharray:none;stroke-opacity:1"
           d="m -2309.49,-1742.51 c 74.91,-346.04 536.97,-241.98 557.77,75.17"
           inkscape:connector-curvature="0" /></g><g
         transform="matrix(-0.3603112,-0.16382982,-0.15874517,0.35798382,1106.2599,136.84564)"
         id="g3834"><path
           id="path3836"
           style="fill:none;stroke:#72849d;stroke-width:44.42779922;stroke-linecap:butt;stroke-linejoin:miter;stroke-miterlimit:22.92560005;stroke-dasharray:none;stroke-opacity:1"
           d="m -2440.16,-238.725 c -59.79,-110.645 -100.64,-227.095 -145.03,-339.746"
           inkscape:connector-curvature="0" /></g><g
         transform="matrix(-0.25448179,-0.2696483,-0.26608801,0.25065139,1106.2599,136.84564)"
         id="g3838"><path
           id="path3840"
           style="fill:none;stroke:#72849d;stroke-width:47.50970078;stroke-linecap:butt;stroke-linejoin:miter;stroke-miterlimit:22.92560005;stroke-dasharray:none;stroke-opacity:1"
           d="m -2272.54,-1389.9 c 115.82,0.49 224.36,-4.27 325.89,-21.73 81.54,-15.71 140.76,-68.36 175.92,-144.3"
           inkscape:connector-curvature="0" /></g><g
         transform="matrix(-0.3603112,-0.16382982,-0.15874517,0.35798382,1106.2599,136.84564)"
         id="g3842"><path
           id="path3844"
           style="fill:none;stroke:#72849d;stroke-width:44.42779922;stroke-linecap:butt;stroke-linejoin:miter;stroke-miterlimit:22.92560005;stroke-dasharray:none;stroke-opacity:1"
           d="m -2269.91,-535.562 c -12.43,-146.9 102.79,-287.884 305.42,-200.579 79.72,47.342 122.19,168.162 33.08,275.835 -48.1,57.642 -138.98,113.813 -236.23,156.205"
           inkscape:connector-curvature="0" /></g><g
         transform="matrix(-0.3603112,-0.16382982,-0.15874517,0.35798382,1106.2599,136.84564)"
         id="g3846"><path
           id="path3848"
           style="fill:none;stroke:#72849d;stroke-width:44.42779922;stroke-linecap:butt;stroke-linejoin:miter;stroke-miterlimit:22.92560005;stroke-dasharray:none;stroke-opacity:1"
           d="m -2251.64,-433.062 c 16.64,98.136 84.56,230.598 86.29,301.994 -1.31,133.37434 -151.5,156.9651 -228.17,-15.71"
           inkscape:connector-curvature="0" /></g><g
         transform="matrix(-0.3603112,-0.16382982,-0.15874517,0.35798382,1106.2599,136.84564)"
         id="g3850"><path
           id="path3852"
           style="fill:none;stroke:#72849d;stroke-width:44.42779922;stroke-linecap:butt;stroke-linejoin:miter;stroke-miterlimit:22.92560005;stroke-dasharray:none;stroke-opacity:1"
           d="m -2257.4,-258.281 c -88.39,42.823 -165.71,65.379 -261.28,92.246 -107.24,8.851 -129.97,-52.241 -159.93,-109.403"
           inkscape:connector-curvature="0" /></g><path
         id="path3854"
         style="fill:none;stroke:#72849d;stroke-width:4.42572689;stroke-linecap:butt;stroke-linejoin:miter;stroke-miterlimit:22.92560005;stroke-dasharray:none;stroke-opacity:1"
         d="m 2000.1487,367.55292 c -23.5445,30.4595 -50.4198,55.087 -72.658,86.19496 -9.2897,30.46158 16.0607,35.64564 53.2353,6.48098 -37.1746,29.16466 -62.525,23.9806 -53.2353,-6.48098 22.2382,-31.10796 49.1135,-55.73546 72.658,-86.19496 z"
         inkscape:connector-curvature="0" /><path
         id="path3856"
         style="fill:none;stroke:#72849d;stroke-width:4.42572689;stroke-linecap:butt;stroke-linejoin:miter;stroke-miterlimit:22.92560005;stroke-dasharray:none;stroke-opacity:1"
         d="m 2054.4196,401.25316 c -29.6075,-31.10848 -55.9623,-61.56798 -77.1545,-93.32492 -16.5706,-25.92391 -17.6323,-55.08857 -6.3701,-83.60268 -11.2622,28.51411 -10.2005,57.67877 6.3701,83.60268 21.1922,31.75694 47.547,62.21644 77.1545,93.32492 z"
         inkscape:connector-curvature="0" /></g></g></svg>